<svg width="24" height="24" viewBox="0 0 24 24" fill="none" xmlns="http://www.w3.org/2000/svg">
<path d="M0.5 4.5H23.5V21.5C23.5 22.6046 22.6046 23.5 21.5 23.5H2.5C1.39543 23.5 0.5 22.6046 0.5 21.5V4.5Z" fill="white" stroke="#616161"/>
<path d="M16.5 19C16.5 18.7239 16.7239 18.5 17 18.5H21C21.2761 18.5 21.5 18.7239 21.5 19V21C21.5 21.2761 21.2761 21.5 21 21.5H17C16.7239 21.5 16.5 21.2761 16.5 21V20.5V19Z" fill="#F5F5F5" stroke="#616162"/>
<path d="M6.5 19C6.5 18.7239 6.72386 18.5 7 18.5H14C14.2761 18.5 14.5 18.7239 14.5 19V21C14.5 21.2761 14.2761 21.5 14 21.5H7C6.72386 21.5 6.5 21.2761 6.5 21V19Z" fill="#F5F5F5"/>
<path d="M12.5 18.5V21.5M7 21.5H14C14.2761 21.5 14.5 21.2761 14.5 21V19C14.5 18.7239 14.2761 18.5 14 18.5H7C6.72386 18.5 6.5 18.7239 6.5 19V21C6.5 21.2761 6.72386 21.5 7 21.5Z" stroke="#616162" stroke-linecap="round" stroke-linejoin="round"/>
<circle cx="3.5" cy="19.5" r="1.5" fill="#008014"/>
<path d="M2.5 11.4567C5.66667 7.45671 8.83333 7.45671 12 11.4567C15.1667 15.4567 18.3333 15.4567 21.5 11.4567" stroke="#268CDD" stroke-linecap="round"/>
<path d="M2.5 16.5H21.5V6.50005H2.5V16.5Z" stroke="#616162" stroke-linejoin="round"/>
<path d="M0.5 2.5C0.5 1.39543 1.39543 0.5 2.5 0.5H21.5C22.6046 0.5 23.5 1.39543 23.5 2.5V4.5H0.5V2.5Z" fill="#B4DEFF" stroke="#1656A7"/>
<path d="M2 2H3V3H2V2Z" fill="#1656A8"/>
<path d="M4 2H5V3H4V2Z" fill="#1656A8"/>
<path d="M6 2H7V3H6V2Z" fill="#1656A8"/>
<path d="M21 2H22V3H21V2Z" fill="#1656A8"/>
<path d="M19 2H20V3H19V2Z" fill="#1656A8"/>
</svg>
