<svg width="24" height="24" viewBox="0 0 24 24" fill="none" xmlns="http://www.w3.org/2000/svg">
<!-- Full matlabApp.svg background -->
<path d="M0.5 4.5H23.5V21.5C23.5 22.6046 22.6046 23.5 21.5 23.5H2.5C1.39543 23.5 0.5 22.6046 0.5 21.5V4.5Z" fill="white" stroke="#616161"/>
<path d="M16.5 19C16.5 18.7239 16.7239 18.5 17 18.5H21C21.2761 18.5 21.5 18.7239 21.5 19V21C21.5 21.2761 21.2761 21.5 21 21.5H17C16.7239 21.5 16.5 21.2761 16.5 21V20.5V19Z" fill="#F5F5F5" stroke="#616162"/>
<path d="M6.5 19C6.5 18.7239 6.72386 18.5 7 18.5H14C14.2761 18.5 14.5 18.7239 14.5 19V21C14.5 21.2761 14.2761 21.5 14 21.5H7C6.72386 21.5 6.5 21.2761 6.5 21V19Z" fill="#F5F5F5"/>
<path d="M12.5 18.5V21.5M7 21.5H14C14.2761 21.5 14.5 21.2761 14.5 21V19C14.5 18.7239 14.2761 18.5 14 18.5H7C6.72386 18.5 6.5 18.7239 6.5 19V21C6.5 21.2761 6.72386 21.5 7 21.5Z" stroke="#616162" stroke-linecap="round" stroke-linejoin="round"/>
<circle cx="3.5" cy="19.5" r="1.5" fill="#008014"/>
<path d="M2.5 11.4567C5.66667 7.45671 8.83333 7.45671 12 11.4567C15.1667 15.4567 18.3333 15.4567 21.5 11.4567" stroke="#268CDD" stroke-linecap="round"/>
<path d="M2.5 16.5H21.5V6.50005H2.5V16.5Z" stroke="#616162" stroke-linejoin="round"/>
<path d="M0.5 2.5C0.5 1.39543 1.39543 0.5 2.5 0.5H21.5C22.6046 0.5 23.5 1.39543 23.5 2.5V4.5H0.5V2.5Z" fill="#B4DEFF" stroke="#1656A7"/>
<path d="M2 2H3V3H2V2Z" fill="#1656A8"/>
<path d="M4 2H5V3H4V2Z" fill="#1656A8"/>
<path d="M6 2H7V3H6V2Z" fill="#1656A8"/>
<path d="M21 2H22V3H21V2Z" fill="#1656A8"/>
<path d="M19 2H20V3H19V2Z" fill="#1656A8"/>
<!-- Gear in bottom-right, partially outside viewbox -->
<path fill-rule="evenodd" clip-rule="evenodd" d="M19.5357 13.6393C19.2993 13.5144 19.05 13.4106 18.7904 13.3303L18.4091 11.5H16.5909L16.2096 13.3303C15.95 13.4106 15.7007 13.5144 15.4643 13.6393L13.9002 12.6145L12.6145 13.9002L13.6393 15.4643C13.5144 15.7007 13.4106 15.95 13.3303 16.2096L11.5 16.5909V18.4091L13.3303 18.7904C13.4106 19.05 13.5144 19.2993 13.6393 19.5357L12.6145 21.0998L13.9002 22.3855L15.4643 21.3607C15.7007 21.4856 15.95 21.5894 16.2096 21.6697L16.5909 23.5H18.4091L18.7904 21.6697C19.05 21.5894 19.2993 21.4856 19.5357 21.3607L21.0998 22.3855L22.3855 21.0998L21.3607 19.5357C21.4856 19.2993 21.5894 19.05 21.6697 18.7904L23.5 18.4091V16.5909L21.6697 16.2096C21.5894 15.95 21.4856 15.7007 21.3607 15.4643L22.3855 13.9002L21.0998 12.6145L19.5357 13.6393Z" fill="#D9D9D9" stroke="#616161" stroke-linejoin="round"/>
<path d="M20 17.5C20 18.8807 18.8807 20 17.5 20C16.1193 20 15 18.8807 15 17.5C15 16.1193 16.1193 15 17.5 15C18.8807 15 20 16.1193 20 17.5Z" fill="#A6A6A6"/>
<path d="M19 17.5C19 18.3284 18.3284 19 17.5 19C16.6716 19 16 18.3284 16 17.5C16 16.6716 16.6716 16 17.5 16C18.3284 16 19 16.6716 19 17.5Z" fill="#616162"/>
</svg>
