<svg xmlns="http://www.w3.org/2000/svg" xmlns:xlink="http://www.w3.org/1999/xlink" viewBox="0 0 24 24"><defs><linearGradient id="linear-gradient" x1="11.99" y1="1.5" x2="11.99" y2="22.41" gradientUnits="userSpaceOnUse"><stop offset="0" stop-color="#c5c5c5"/><stop offset="0.94" stop-color="#575757"/></linearGradient><linearGradient id="linear-gradient-2" x1="12" y1="23" x2="12" y2="1" gradientUnits="userSpaceOnUse"><stop offset="0.11" stop-color="#2b2b2b"/><stop offset="0.99" stop-color="#8c8c8c"/></linearGradient></defs><g id="Layer_2" data-name="Layer 2"><g id="save"><g id="save_24"><polygon points="3.83 22.41 1.5 20.11 1.5 1.5 22.49 1.5 22.49 22.4 19.5 22.4 19.5 14.44 4.43 14.44 4.43 22.41 3.83 22.41" fill="url(#linear-gradient)"/><path d="M5,11H19V2H5Z" fill="#fff"/><path d="M20,1H4V12H20ZM19,11H5V2H19Z" fill="#696969"/><rect x="6" y="4" width="11" height="1" fill="gray"/><rect x="6" y="6" width="7" height="1" fill="gray"/><polygon points="4.53 22.38 4.53 14.45 19.49 14.45 19.49 22.36 7.56 22.36 7.56 16.42 6.51 16.42 6.51 22.38 4.53 22.38" fill="#e6e6e6"/><path d="M23,1H1V20.5L3.5,23H23ZM7,16v6H5V15H17v7H9V16Zm15,6H20V14H4v8H4L2,20V2H22Z" fill="url(#linear-gradient-2)"/><rect x="5" y="15" width="12" height="1" fill="#fff"/><rect x="2" y="2" width="20" height="1" fill="#fff" opacity="0.3"/><rect x="4" y="12" width="16" height="1" fill="#fff" opacity="0.2"/><rect width="24" height="24" fill="none"/></g></g></g></svg>